<svg id="Capa_1" enable-background="new 0 0 490 490" height="512" viewBox="0 0 490 490" width="512" xmlns="http://www.w3.org/2000/svg"><g><path d="m490 245c0 104.12-64.95 193.08-156.55 228.55-27.44 10.62-57.26 16.45-88.45 16.45-43.47 0-84.3-11.32-119.7-31.19-26.78-15.01-50.44-34.93-69.79-58.51-34.7-42.27-55.51-96.36-55.51-155.3 0-135.31 109.69-245 245-245s245 109.69 245 245z" fill="#e7c837"/><path d="m206.386 60.944h116.142v39.076h-116.142z" fill="#232c31"/><path d="m164.054 26.21h67.297v156.303h-67.297z" fill="#e4e4e4"/><path d="m164.054 26.21h26.305v156.303h-26.305z" fill="#b0b0b0"/><path d="m339.9 263.92v167.16c0 14.8-2.26 29.06-6.45 42.47-27.44 10.62-57.26 16.45-88.45 16.45-76.36 0-144.57-34.94-189.49-89.7v-136.38c0-78.53 63.66-142.19 142.19-142.19s142.2 63.66 142.2 142.19z" fill="#db2b51"/><path d="m123.89 263.92v167.16c0 9.49.48 18.76 1.41 27.73-26.78-15.01-50.44-34.93-69.79-58.51v-136.38c0-78.22 63.14-141.67 141.24-142.18-40.33.99-72.86 64.27-72.86 142.18z" fill="#b21646"/><path d="m474.489 142.352-180.182-26.116v-75.85l180.182-26.116z" fill="#e4e4e4"/><path d="m474.489 142.352-180.182-26.116v-30.327l180.182 8.683z" fill="#b0b0b0"/><path d="m115.752 255.237h163.901v189.951h-163.901z" fill="#e4e4e4"/><path d="m124.262 445.188h-8.51v-189.951h8.282c-.098 2.866-.141 5.764-.141 8.683v167.157c0 4.766.119 9.466.369 14.111z" fill="#b0b0b0"/><path d="m195.229 409.369c-30.392 0-51.016-41.247-33.649-70.553s10.854-52.101 10.854-52.101 39.076 31.478 29.307 60.784c0 0 11.94-16.101 11.94-37.99 18.814 3.618 56.986 99.86-18.452 99.86z" fill="#db2b51"/></g></svg>